<svg width="13" height="13" viewBox="0 0 13 13" fill="none" xmlns="http://www.w3.org/2000/svg">
<path d="M6.50002 2.16663C6.35636 2.16663 6.21859 2.22369 6.117 2.32528C6.01542 2.42686 5.95835 2.56463 5.95835 2.70829V5.95829H2.70835C2.56469 5.95829 2.42692 6.01536 2.32534 6.11694C2.22376 6.21853 2.16669 6.3563 2.16669 6.49996C2.16669 6.64362 2.22376 6.78139 2.32534 6.88298C2.42692 6.98456 2.56469 7.04163 2.70835 7.04163H5.95835V10.2916C5.95835 10.4353 6.01542 10.5731 6.117 10.6746C6.21859 10.7762 6.35636 10.8333 6.50002 10.8333C6.64368 10.8333 6.78145 10.7762 6.88304 10.6746C6.98462 10.5731 7.04169 10.4353 7.04169 10.2916V7.04163H10.2917C10.4353 7.04163 10.5731 6.98456 10.6747 6.88298C10.7763 6.78139 10.8334 6.64362 10.8334 6.49996C10.8334 6.3563 10.7763 6.21853 10.6747 6.11694C10.5731 6.01536 10.4353 5.95829 10.2917 5.95829H7.04169V2.70829C7.04169 2.56463 6.98462 2.42686 6.88304 2.32528C6.78145 2.22369 6.64368 2.16663 6.50002 2.16663V2.16663Z" fill="white"/>
</svg>
