<svg width="10" height="10" viewBox="0 0 10 10" fill="none" xmlns="http://www.w3.org/2000/svg">
<path d="M2.08333 7.91667H7.91666C8.05263 7.91571 8.18629 7.88151 8.30599 7.81703C8.4257 7.75256 8.52781 7.65977 8.60342 7.54677C8.67903 7.43376 8.72584 7.30398 8.73977 7.16873C8.7537 7.03348 8.73432 6.89688 8.68333 6.77083L5.725 1.66667C5.65293 1.53642 5.54729 1.42785 5.41906 1.35225C5.29083 1.27664 5.14469 1.23677 4.99583 1.23677C4.84697 1.23677 4.70083 1.27664 4.5726 1.35225C4.44437 1.42785 4.33873 1.53642 4.26666 1.66667L1.30833 6.77083C1.25831 6.89399 1.23847 7.02733 1.25048 7.15971C1.26248 7.2921 1.30599 7.41969 1.37735 7.53184C1.44872 7.64398 1.54588 7.73743 1.66072 7.80438C1.77556 7.87132 1.90475 7.90982 2.0375 7.91667M5 1.25V7.91667" stroke="white" stroke-width="0.833333" stroke-linecap="round" stroke-linejoin="round"/>
</svg>
