<svg width="10" height="10" viewBox="0 0 10 10" fill="none" xmlns="http://www.w3.org/2000/svg">
<g clip-path="url(#clip0_587_687)">
<path d="M6.62126 1.27C6.90084 0.990366 7.28005 0.833245 7.67548 0.833206C8.07091 0.833167 8.45016 0.990213 8.7298 1.2698C9.00943 1.54938 9.16655 1.92859 9.16659 2.32402C9.16663 2.71945 9.00959 3.0987 8.73 3.37834L8.35834 3.75L6.25001 1.64167L6.62126 1.27ZM5.80834 2.08334L1.64167 6.24959C1.47235 6.41897 1.35335 6.63201 1.29792 6.865L0.841672 8.78209C0.829319 8.83402 0.830477 8.88826 0.845037 8.93962C0.859596 8.99099 0.887072 9.03776 0.924842 9.07549C0.962613 9.11322 1.00942 9.14064 1.0608 9.15515C1.11218 9.16965 1.16642 9.17075 1.21834 9.15834L3.13542 8.70209C3.36847 8.64656 3.58152 8.52741 3.75084 8.35792L7.91667 4.1925L5.80792 2.08334H5.80834Z" fill="white"/>
</g>
<defs>
<clipPath id="clip0_587_687">
<rect width="10" height="10" fill="white"/>
</clipPath>
</defs>
</svg>
