<svg width="17" height="18" viewBox="0 0 17 18" fill="none" xmlns="http://www.w3.org/2000/svg">
<path d="M1.8 18C1.305 18 0.881101 17.8236 0.528301 17.4708C0.175501 17.118 -0.000598472 16.6944 1.52801e-06 16.2V3.6C1.52801e-06 3.105 0.176402 2.6811 0.529201 2.3283C0.882001 1.9755 1.3056 1.7994 1.8 1.8H2.7V0H4.5V1.8H11.7V0H13.5V1.8H14.4C14.895 1.8 15.3189 1.9764 15.6717 2.3292C16.0245 2.682 16.2006 3.1056 16.2 3.6V16.2C16.2 16.695 16.0236 17.1189 15.6708 17.4717C15.318 17.8245 14.8944 18.0006 14.4 18H1.8ZM1.8 16.2H14.4V7.2H1.8V16.2ZM1.8 5.4H14.4V3.6H1.8V5.4Z" fill="black" fill-opacity="0.5"/>
</svg>
