<svg width="13" height="18" viewBox="0 0 13 18" fill="none" xmlns="http://www.w3.org/2000/svg">
<path d="M6.3 4.05C6.89674 4.05 7.46903 4.28705 7.89099 4.70901C8.31295 5.13097 8.55 5.70326 8.55 6.3C8.55 6.59547 8.4918 6.88806 8.37873 7.16104C8.26566 7.43402 8.09992 7.68206 7.89099 7.89099C7.68206 8.09992 7.43402 8.26566 7.16104 8.37873C6.88806 8.4918 6.59547 8.55 6.3 8.55C5.70326 8.55 5.13097 8.31295 4.70901 7.89099C4.28705 7.46903 4.05 6.89674 4.05 6.3C4.05 5.70326 4.28705 5.13097 4.70901 4.70901C5.13097 4.28705 5.70326 4.05 6.3 4.05ZM6.3 0C7.97086 0 9.57329 0.663748 10.7548 1.84523C11.9363 3.02671 12.6 4.62914 12.6 6.3C12.6 11.025 6.3 18 6.3 18C6.3 18 0 11.025 0 6.3C0 4.62914 0.663748 3.02671 1.84523 1.84523C3.02671 0.663748 4.62914 0 6.3 0ZM6.3 1.8C5.10653 1.8 3.96193 2.27411 3.11802 3.11802C2.27411 3.96193 1.8 5.10653 1.8 6.3C1.8 7.2 1.8 9 6.3 15.039C10.8 9 10.8 7.2 10.8 6.3C10.8 5.10653 10.3259 3.96193 9.48198 3.11802C8.63807 2.27411 7.49347 1.8 6.3 1.8Z" fill="black" fill-opacity="0.5"/>
</svg>
