<svg width="22" height="14" viewBox="0 0 22 14" fill="none" xmlns="http://www.w3.org/2000/svg">
<path d="M19.25 12.6667H13.75V9.91667H12.1917C11.1833 12.1167 8.89167 13.5833 6.41667 13.5833C2.84167 13.5833 0 10.7417 0 7.16667C0 3.59167 2.84167 0.75 6.41667 0.75C8.89167 0.75 11.1833 2.21667 12.1917 4.41667H22V9.91667H19.25V12.6667ZM15.5833 10.8333H17.4167V8.08333H20.1667V6.25H10.9083L10.725 5.60833C10.0833 3.775 8.34167 2.58333 6.41667 2.58333C3.85 2.58333 1.83333 4.6 1.83333 7.16667C1.83333 9.73333 3.85 11.75 6.41667 11.75C8.34167 11.75 10.0833 10.5583 10.725 8.725L10.9083 8.08333H15.5833V10.8333ZM6.41667 9.91667C4.85833 9.91667 3.66667 8.725 3.66667 7.16667C3.66667 5.60833 4.85833 4.41667 6.41667 4.41667C7.975 4.41667 9.16667 5.60833 9.16667 7.16667C9.16667 8.725 7.975 9.91667 6.41667 9.91667ZM6.41667 6.25C5.86667 6.25 5.5 6.61667 5.5 7.16667C5.5 7.71667 5.86667 8.08333 6.41667 8.08333C6.96667 8.08333 7.33333 7.71667 7.33333 7.16667C7.33333 6.61667 6.96667 6.25 6.41667 6.25Z" fill="black" fill-opacity="0.5"/>
</svg>
